<svg width="442" height="131" viewBox="0 0 442 131" fill="none" xmlns="http://www.w3.org/2000/svg">
<circle cx="8" cy="13.5" r="8" fill="#60BB53"/>
<path d="M24.99 10.334C25.05 9.134 25.47 8.21 26.25 7.562C27.042 6.902 28.08 6.572 29.364 6.572C30.24 6.572 30.99 6.728 31.614 7.04C32.238 7.34 32.706 7.754 33.018 8.282C33.342 8.798 33.504 9.386 33.504 10.046C33.504 10.802 33.306 11.444 32.91 11.972C32.526 12.488 32.064 12.836 31.524 13.016V13.088C32.22 13.304 32.76 13.688 33.144 14.24C33.54 14.792 33.738 15.5 33.738 16.364C33.738 17.084 33.57 17.726 33.234 18.29C32.91 18.854 32.424 19.298 31.776 19.622C31.14 19.934 30.372 20.09 29.472 20.09C28.116 20.09 27.012 19.748 26.16 19.064C25.308 18.38 24.858 17.372 24.81 16.04H27.258C27.282 16.628 27.48 17.102 27.852 17.462C28.236 17.81 28.758 17.984 29.418 17.984C30.03 17.984 30.498 17.816 30.822 17.48C31.158 17.132 31.326 16.688 31.326 16.148C31.326 15.428 31.098 14.912 30.642 14.6C30.186 14.288 29.478 14.132 28.518 14.132H27.996V12.062H28.518C30.222 12.062 31.074 11.492 31.074 10.352C31.074 9.836 30.918 9.434 30.606 9.146C30.306 8.858 29.868 8.714 29.292 8.714C28.728 8.714 28.29 8.87 27.978 9.182C27.678 9.482 27.504 9.866 27.456 10.334H24.99ZM35.4414 10.1C35.4414 9.188 35.7054 8.474 36.2334 7.958C36.7734 7.442 37.4634 7.184 38.3034 7.184C39.1434 7.184 39.8274 7.442 40.3554 7.958C40.8954 8.474 41.1654 9.188 41.1654 10.1C41.1654 11.024 40.8954 11.744 40.3554 12.26C39.8274 12.776 39.1434 13.034 38.3034 13.034C37.4634 13.034 36.7734 12.776 36.2334 12.26C35.7054 11.744 35.4414 11.024 35.4414 10.1ZM46.9974 7.4L39.9234 20H37.4754L44.5314 7.4H46.9974ZM38.2854 8.696C37.6254 8.696 37.2954 9.164 37.2954 10.1C37.2954 11.048 37.6254 11.522 38.2854 11.522C38.6094 11.522 38.8614 11.408 39.0414 11.18C39.2214 10.94 39.3114 10.58 39.3114 10.1C39.3114 9.164 38.9694 8.696 38.2854 8.696ZM43.3434 17.282C43.3434 16.358 43.6074 15.644 44.1354 15.14C44.6754 14.624 45.3654 14.366 46.2054 14.366C47.0454 14.366 47.7234 14.624 48.2394 15.14C48.7674 15.644 49.0314 16.358 49.0314 17.282C49.0314 18.206 48.7674 18.926 48.2394 19.442C47.7234 19.958 47.0454 20.216 46.2054 20.216C45.3534 20.216 44.6634 19.958 44.1354 19.442C43.6074 18.926 43.3434 18.206 43.3434 17.282ZM46.1874 15.878C45.5034 15.878 45.1614 16.346 45.1614 17.282C45.1614 18.23 45.5034 18.704 46.1874 18.704C46.8594 18.704 47.1954 18.23 47.1954 17.282C47.1954 16.346 46.8594 15.878 46.1874 15.878ZM62.8983 12.512V14.636H55.2663V12.512H62.8983ZM74.3515 20.126C73.4755 20.126 72.6835 19.976 71.9755 19.676C71.2795 19.376 70.7275 18.944 70.3195 18.38C69.9115 17.816 69.7015 17.15 69.6895 16.382H72.3895C72.4255 16.898 72.6055 17.306 72.9295 17.606C73.2655 17.906 73.7215 18.056 74.2975 18.056C74.8855 18.056 75.3475 17.918 75.6835 17.642C76.0195 17.354 76.1875 16.982 76.1875 16.526C76.1875 16.154 76.0735 15.848 75.8455 15.608C75.6175 15.368 75.3295 15.182 74.9815 15.05C74.6455 14.906 74.1775 14.75 73.5775 14.582C72.7615 14.342 72.0955 14.108 71.5795 13.88C71.0755 13.64 70.6375 13.286 70.2655 12.818C69.9055 12.338 69.7255 11.702 69.7255 10.91C69.7255 10.166 69.9115 9.518 70.2835 8.966C70.6555 8.414 71.1775 7.994 71.8495 7.706C72.5215 7.406 73.2895 7.256 74.1535 7.256C75.4495 7.256 76.4995 7.574 77.3035 8.21C78.1195 8.834 78.5695 9.71 78.6535 10.838H75.8815C75.8575 10.406 75.6715 10.052 75.3235 9.776C74.9875 9.488 74.5375 9.344 73.9735 9.344C73.4815 9.344 73.0855 9.47 72.7855 9.722C72.4975 9.974 72.3535 10.34 72.3535 10.82C72.3535 11.156 72.4615 11.438 72.6775 11.666C72.9055 11.882 73.1815 12.062 73.5055 12.206C73.8415 12.338 74.3095 12.494 74.9095 12.674C75.7255 12.914 76.3915 13.154 76.9075 13.394C77.4235 13.634 77.8675 13.994 78.2395 14.474C78.6115 14.954 78.7975 15.584 78.7975 16.364C78.7975 17.036 78.6235 17.66 78.2755 18.236C77.9275 18.812 77.4175 19.274 76.7455 19.622C76.0735 19.958 75.2755 20.126 74.3515 20.126ZM89.5322 7.436V9.47H86.1842V20H83.6642V9.47H80.3162V7.436H89.5322ZM99.0749 17.606H94.0709L93.2429 20H90.5969L95.1149 7.418H98.0489L102.567 20H99.9029L99.0749 17.606ZM98.3909 15.59L96.5729 10.334L94.7549 15.59H98.3909ZM110.736 20L107.964 15.104H106.776V20H104.256V7.436H108.972C109.944 7.436 110.772 7.61 111.456 7.958C112.14 8.294 112.65 8.756 112.986 9.344C113.334 9.92 113.508 10.568 113.508 11.288C113.508 12.116 113.268 12.866 112.788 13.538C112.308 14.198 111.594 14.654 110.646 14.906L113.652 20H110.736ZM106.776 13.214H108.882C109.566 13.214 110.076 13.052 110.412 12.728C110.748 12.392 110.916 11.93 110.916 11.342C110.916 10.766 110.748 10.322 110.412 10.01C110.076 9.686 109.566 9.524 108.882 9.524H106.776V13.214ZM124.337 7.436V9.47H120.989V20H118.469V9.47H115.121V7.436H124.337ZM128.696 9.47V12.62H132.926V14.618H128.696V17.948H133.466V20H126.176V7.418H133.466V9.47H128.696ZM138.276 18.002H142.416V20H135.756V7.436H138.276V18.002Z" fill="black"/>
<circle cx="176" cy="13.5" r="8" fill="#ED1C24"/>
<path d="M199.758 10.154C199.638 9.65 199.428 9.272 199.128 9.02C198.84 8.768 198.42 8.642 197.868 8.642C197.04 8.642 196.428 8.978 196.032 9.65C195.648 10.31 195.45 11.39 195.438 12.89C195.726 12.41 196.146 12.038 196.698 11.774C197.25 11.498 197.85 11.36 198.498 11.36C199.278 11.36 199.968 11.528 200.568 11.864C201.168 12.2 201.636 12.692 201.972 13.34C202.308 13.976 202.476 14.744 202.476 15.644C202.476 16.496 202.302 17.258 201.954 17.93C201.618 18.59 201.12 19.106 200.46 19.478C199.8 19.85 199.014 20.036 198.102 20.036C196.854 20.036 195.87 19.76 195.15 19.208C194.442 18.656 193.944 17.888 193.656 16.904C193.38 15.908 193.242 14.684 193.242 13.232C193.242 11.036 193.62 9.38 194.376 8.264C195.132 7.136 196.326 6.572 197.958 6.572C199.218 6.572 200.196 6.914 200.892 7.598C201.588 8.282 201.99 9.134 202.098 10.154H199.758ZM197.922 13.43C197.286 13.43 196.752 13.616 196.32 13.988C195.888 14.36 195.672 14.9 195.672 15.608C195.672 16.316 195.87 16.874 196.266 17.282C196.674 17.69 197.244 17.894 197.976 17.894C198.624 17.894 199.134 17.696 199.506 17.3C199.89 16.904 200.082 16.37 200.082 15.698C200.082 15.002 199.896 14.45 199.524 14.042C199.164 13.634 198.63 13.43 197.922 13.43ZM204.18 10.1C204.18 9.188 204.444 8.474 204.972 7.958C205.512 7.442 206.202 7.184 207.042 7.184C207.882 7.184 208.566 7.442 209.094 7.958C209.634 8.474 209.904 9.188 209.904 10.1C209.904 11.024 209.634 11.744 209.094 12.26C208.566 12.776 207.882 13.034 207.042 13.034C206.202 13.034 205.512 12.776 204.972 12.26C204.444 11.744 204.18 11.024 204.18 10.1ZM215.736 7.4L208.662 20H206.214L213.27 7.4H215.736ZM207.024 8.696C206.364 8.696 206.034 9.164 206.034 10.1C206.034 11.048 206.364 11.522 207.024 11.522C207.348 11.522 207.6 11.408 207.78 11.18C207.96 10.94 208.05 10.58 208.05 10.1C208.05 9.164 207.708 8.696 207.024 8.696ZM212.082 17.282C212.082 16.358 212.346 15.644 212.874 15.14C213.414 14.624 214.104 14.366 214.944 14.366C215.784 14.366 216.462 14.624 216.978 15.14C217.506 15.644 217.77 16.358 217.77 17.282C217.77 18.206 217.506 18.926 216.978 19.442C216.462 19.958 215.784 20.216 214.944 20.216C214.092 20.216 213.402 19.958 212.874 19.442C212.346 18.926 212.082 18.206 212.082 17.282ZM214.926 15.878C214.242 15.878 213.9 16.346 213.9 17.282C213.9 18.23 214.242 18.704 214.926 18.704C215.598 18.704 215.934 18.23 215.934 17.282C215.934 16.346 215.598 15.878 214.926 15.878ZM231.637 12.512V14.636H224.005V12.512H231.637ZM252.45 7.436V20H249.93V11.828L246.564 20H244.656L241.272 11.828V20H238.752V7.436H241.614L245.61 16.778L249.606 7.436H252.45ZM260.773 20.126C259.597 20.126 258.517 19.85 257.533 19.298C256.549 18.746 255.769 17.984 255.193 17.012C254.617 16.028 254.329 14.918 254.329 13.682C254.329 12.458 254.617 11.36 255.193 10.388C255.769 9.404 256.549 8.636 257.533 8.084C258.517 7.532 259.597 7.256 260.773 7.256C261.961 7.256 263.041 7.532 264.013 8.084C264.997 8.636 265.771 9.404 266.335 10.388C266.911 11.36 267.199 12.458 267.199 13.682C267.199 14.918 266.911 16.028 266.335 17.012C265.771 17.984 264.997 18.746 264.013 19.298C263.029 19.85 261.949 20.126 260.773 20.126ZM260.773 17.876C261.529 17.876 262.195 17.708 262.771 17.372C263.347 17.024 263.797 16.532 264.121 15.896C264.445 15.26 264.607 14.522 264.607 13.682C264.607 12.842 264.445 12.11 264.121 11.486C263.797 10.85 263.347 10.364 262.771 10.028C262.195 9.692 261.529 9.524 260.773 9.524C260.017 9.524 259.345 9.692 258.757 10.028C258.181 10.364 257.731 10.85 257.407 11.486C257.083 12.11 256.921 12.842 256.921 13.682C256.921 14.522 257.083 15.26 257.407 15.896C257.731 16.532 258.181 17.024 258.757 17.372C259.345 17.708 260.017 17.876 260.773 17.876ZM280.36 7.436L275.752 20H272.692L268.084 7.436H270.784L274.24 17.426L277.678 7.436H280.36ZM284.391 7.436V20H281.871V7.436H284.391ZM286.269 13.7C286.269 12.464 286.545 11.36 287.097 10.388C287.661 9.404 288.423 8.642 289.383 8.102C290.355 7.55 291.441 7.274 292.641 7.274C294.045 7.274 295.275 7.634 296.331 8.354C297.387 9.074 298.125 10.07 298.545 11.342H295.647C295.359 10.742 294.951 10.292 294.423 9.992C293.907 9.692 293.307 9.542 292.623 9.542C291.891 9.542 291.237 9.716 290.661 10.064C290.097 10.4 289.653 10.88 289.329 11.504C289.017 12.128 288.861 12.86 288.861 13.7C288.861 14.528 289.017 15.26 289.329 15.896C289.653 16.52 290.097 17.006 290.661 17.354C291.237 17.69 291.891 17.858 292.623 17.858C293.307 17.858 293.907 17.708 294.423 17.408C294.951 17.096 295.359 16.64 295.647 16.04H298.545C298.125 17.324 297.387 18.326 296.331 19.046C295.287 19.754 294.057 20.108 292.641 20.108C291.441 20.108 290.355 19.838 289.383 19.298C288.423 18.746 287.661 17.984 287.097 17.012C286.545 16.04 286.269 14.936 286.269 13.7ZM303.217 9.47V12.62H307.447V14.618H303.217V17.948H307.987V20H300.697V7.418H307.987V9.47H303.217ZM312.797 18.002H316.937V20H310.277V7.436H312.797V18.002Z" fill="black"/>
<circle cx="8" cy="65.5" r="8" fill="#FDCB26"/>
<path d="M27.87 68.31C27.966 68.838 28.182 69.246 28.518 69.534C28.866 69.81 29.328 69.948 29.904 69.948C30.648 69.948 31.188 69.642 31.524 69.03C31.86 68.406 32.028 67.362 32.028 65.898C31.752 66.282 31.362 66.582 30.858 66.798C30.366 67.014 29.832 67.122 29.256 67.122C28.488 67.122 27.792 66.966 27.168 66.654C26.556 66.33 26.07 65.856 25.71 65.232C25.35 64.596 25.17 63.828 25.17 62.928C25.17 61.596 25.566 60.54 26.358 59.76C27.15 58.968 28.23 58.572 29.598 58.572C31.302 58.572 32.502 59.118 33.198 60.21C33.906 61.302 34.26 62.946 34.26 65.142C34.26 66.702 34.122 67.98 33.846 68.976C33.582 69.972 33.12 70.728 32.46 71.244C31.812 71.76 30.924 72.018 29.796 72.018C28.908 72.018 28.152 71.85 27.528 71.514C26.904 71.166 26.424 70.716 26.088 70.164C25.764 69.6 25.578 68.982 25.53 68.31H27.87ZM29.778 65.07C30.402 65.07 30.894 64.878 31.254 64.494C31.614 64.11 31.794 63.594 31.794 62.946C31.794 62.238 31.602 61.692 31.218 61.308C30.846 60.912 30.336 60.714 29.688 60.714C29.04 60.714 28.524 60.918 28.14 61.326C27.768 61.722 27.582 62.25 27.582 62.91C27.582 63.546 27.762 64.068 28.122 64.476C28.494 64.872 29.046 65.07 29.778 65.07ZM35.9336 62.1C35.9336 61.188 36.1976 60.474 36.7256 59.958C37.2656 59.442 37.9556 59.184 38.7956 59.184C39.6356 59.184 40.3196 59.442 40.8476 59.958C41.3876 60.474 41.6576 61.188 41.6576 62.1C41.6576 63.024 41.3876 63.744 40.8476 64.26C40.3196 64.776 39.6356 65.034 38.7956 65.034C37.9556 65.034 37.2656 64.776 36.7256 64.26C36.1976 63.744 35.9336 63.024 35.9336 62.1ZM47.4896 59.4L40.4156 72H37.9676L45.0236 59.4H47.4896ZM38.7776 60.696C38.1176 60.696 37.7876 61.164 37.7876 62.1C37.7876 63.048 38.1176 63.522 38.7776 63.522C39.1016 63.522 39.3536 63.408 39.5336 63.18C39.7136 62.94 39.8036 62.58 39.8036 62.1C39.8036 61.164 39.4616 60.696 38.7776 60.696ZM43.8356 69.282C43.8356 68.358 44.0996 67.644 44.6276 67.14C45.1676 66.624 45.8576 66.366 46.6976 66.366C47.5376 66.366 48.2156 66.624 48.7316 67.14C49.2596 67.644 49.5236 68.358 49.5236 69.282C49.5236 70.206 49.2596 70.926 48.7316 71.442C48.2156 71.958 47.5376 72.216 46.6976 72.216C45.8456 72.216 45.1556 71.958 44.6276 71.442C44.0996 70.926 43.8356 70.206 43.8356 69.282ZM46.6796 67.878C45.9956 67.878 45.6536 68.346 45.6536 69.282C45.6536 70.23 45.9956 70.704 46.6796 70.704C47.3516 70.704 47.6876 70.23 47.6876 69.282C47.6876 68.346 47.3516 67.878 46.6796 67.878ZM63.3905 64.512V66.636H55.7585V64.512H63.3905ZM84.2037 59.436V72H81.6837V63.828L78.3177 72H76.4097L73.0257 63.828V72H70.5057V59.436H73.3677L77.3637 68.778L81.3597 59.436H84.2037ZM91.0331 72.126C90.1571 72.126 89.3651 71.976 88.6571 71.676C87.9611 71.376 87.4091 70.944 87.0011 70.38C86.5931 69.816 86.3831 69.15 86.3711 68.382H89.0711C89.1071 68.898 89.2871 69.306 89.6111 69.606C89.9471 69.906 90.4031 70.056 90.9791 70.056C91.5671 70.056 92.0291 69.918 92.3651 69.642C92.7011 69.354 92.8691 68.982 92.8691 68.526C92.8691 68.154 92.7551 67.848 92.5271 67.608C92.2991 67.368 92.0111 67.182 91.6631 67.05C91.3271 66.906 90.8591 66.75 90.2591 66.582C89.4431 66.342 88.7771 66.108 88.2611 65.88C87.7571 65.64 87.3191 65.286 86.9471 64.818C86.5871 64.338 86.4071 63.702 86.4071 62.91C86.4071 62.166 86.5931 61.518 86.9651 60.966C87.3371 60.414 87.8591 59.994 88.5311 59.706C89.2031 59.406 89.9711 59.256 90.8351 59.256C92.1311 59.256 93.1811 59.574 93.9851 60.21C94.8011 60.834 95.2511 61.71 95.3351 62.838H92.5631C92.5391 62.406 92.3531 62.052 92.0051 61.776C91.6691 61.488 91.2191 61.344 90.6551 61.344C90.1631 61.344 89.7671 61.47 89.4671 61.722C89.1791 61.974 89.0351 62.34 89.0351 62.82C89.0351 63.156 89.1431 63.438 89.3591 63.666C89.5871 63.882 89.8631 64.062 90.1871 64.206C90.5231 64.338 90.9911 64.494 91.5911 64.674C92.4071 64.914 93.0731 65.154 93.5891 65.394C94.1051 65.634 94.5491 65.994 94.9211 66.474C95.2931 66.954 95.4791 67.584 95.4791 68.364C95.4791 69.036 95.3051 69.66 94.9571 70.236C94.6091 70.812 94.0991 71.274 93.4271 71.622C92.7551 71.958 91.9571 72.126 91.0331 72.126ZM106.214 59.436V61.47H102.866V72H100.346V61.47H96.9979V59.436H106.214ZM110.573 61.47V64.62H114.803V66.618H110.573V69.948H115.343V72H108.053V59.418H115.343V61.47H110.573ZM120.153 70.002H124.293V72H117.633V59.436H120.153V70.002ZM125.282 65.7C125.282 64.464 125.558 63.36 126.11 62.388C126.674 61.404 127.436 60.642 128.396 60.102C129.368 59.55 130.454 59.274 131.654 59.274C133.058 59.274 134.288 59.634 135.344 60.354C136.4 61.074 137.138 62.07 137.558 63.342H134.66C134.372 62.742 133.964 62.292 133.436 61.992C132.92 61.692 132.32 61.542 131.636 61.542C130.904 61.542 130.25 61.716 129.674 62.064C129.11 62.4 128.666 62.88 128.342 63.504C128.03 64.128 127.874 64.86 127.874 65.7C127.874 66.528 128.03 67.26 128.342 67.896C128.666 68.52 129.11 69.006 129.674 69.354C130.25 69.69 130.904 69.858 131.636 69.858C132.32 69.858 132.92 69.708 133.436 69.408C133.964 69.096 134.372 68.64 134.66 68.04H137.558C137.138 69.324 136.4 70.326 135.344 71.046C134.3 71.754 133.07 72.108 131.654 72.108C130.454 72.108 129.368 71.838 128.396 71.298C127.436 70.746 126.674 69.984 126.11 69.012C125.558 68.04 125.282 66.936 125.282 65.7ZM145.543 72.126C144.367 72.126 143.287 71.85 142.303 71.298C141.319 70.746 140.539 69.984 139.963 69.012C139.387 68.028 139.099 66.918 139.099 65.682C139.099 64.458 139.387 63.36 139.963 62.388C140.539 61.404 141.319 60.636 142.303 60.084C143.287 59.532 144.367 59.256 145.543 59.256C146.731 59.256 147.811 59.532 148.783 60.084C149.767 60.636 150.541 61.404 151.105 62.388C151.681 63.36 151.969 64.458 151.969 65.682C151.969 66.918 151.681 68.028 151.105 69.012C150.541 69.984 149.767 70.746 148.783 71.298C147.799 71.85 146.719 72.126 145.543 72.126ZM145.543 69.876C146.299 69.876 146.965 69.708 147.541 69.372C148.117 69.024 148.567 68.532 148.891 67.896C149.215 67.26 149.377 66.522 149.377 65.682C149.377 64.842 149.215 64.11 148.891 63.486C148.567 62.85 148.117 62.364 147.541 62.028C146.965 61.692 146.299 61.524 145.543 61.524C144.787 61.524 144.115 61.692 143.527 62.028C142.951 62.364 142.501 62.85 142.177 63.486C141.853 64.11 141.691 64.842 141.691 65.682C141.691 66.522 141.853 67.26 142.177 67.896C142.501 68.532 142.951 69.024 143.527 69.372C144.115 69.708 144.787 69.876 145.543 69.876ZM167.542 59.436V72H165.022V63.828L161.656 72H159.748L156.364 63.828V72H153.844V59.436H156.706L160.702 68.778L164.698 59.436H167.542Z" fill="black"/>
<circle cx="202" cy="65.5" r="8" fill="#00529B"/>
<path d="M227.774 61.056H221.942V64.134C222.194 63.822 222.554 63.57 223.022 63.378C223.49 63.174 223.988 63.072 224.516 63.072C225.476 63.072 226.262 63.282 226.874 63.702C227.486 64.122 227.93 64.662 228.206 65.322C228.482 65.97 228.62 66.666 228.62 67.41C228.62 68.79 228.224 69.9 227.432 70.74C226.652 71.58 225.536 72 224.084 72C222.716 72 221.624 71.658 220.808 70.974C219.992 70.29 219.53 69.396 219.422 68.292H221.87C221.978 68.772 222.218 69.156 222.59 69.444C222.974 69.732 223.46 69.876 224.048 69.876C224.756 69.876 225.29 69.654 225.65 69.21C226.01 68.766 226.19 68.178 226.19 67.446C226.19 66.702 226.004 66.138 225.632 65.754C225.272 65.358 224.738 65.16 224.03 65.16C223.526 65.16 223.106 65.286 222.77 65.538C222.434 65.79 222.194 66.126 222.05 66.546H219.638V58.842H227.774V61.056ZM230.232 61.2V58.878H234.57V72H231.978V61.2H230.232ZM236.771 62.1C236.771 61.188 237.035 60.474 237.563 59.958C238.103 59.442 238.793 59.184 239.633 59.184C240.473 59.184 241.157 59.442 241.685 59.958C242.225 60.474 242.495 61.188 242.495 62.1C242.495 63.024 242.225 63.744 241.685 64.26C241.157 64.776 240.473 65.034 239.633 65.034C238.793 65.034 238.103 64.776 237.563 64.26C237.035 63.744 236.771 63.024 236.771 62.1ZM248.327 59.4L241.253 72H238.805L245.861 59.4H248.327ZM239.615 60.696C238.955 60.696 238.625 61.164 238.625 62.1C238.625 63.048 238.955 63.522 239.615 63.522C239.939 63.522 240.191 63.408 240.371 63.18C240.551 62.94 240.641 62.58 240.641 62.1C240.641 61.164 240.299 60.696 239.615 60.696ZM244.673 69.282C244.673 68.358 244.937 67.644 245.465 67.14C246.005 66.624 246.695 66.366 247.535 66.366C248.375 66.366 249.053 66.624 249.569 67.14C250.097 67.644 250.361 68.358 250.361 69.282C250.361 70.206 250.097 70.926 249.569 71.442C249.053 71.958 248.375 72.216 247.535 72.216C246.683 72.216 245.993 71.958 245.465 71.442C244.937 70.926 244.673 70.206 244.673 69.282ZM247.517 67.878C246.833 67.878 246.491 68.346 246.491 69.282C246.491 70.23 246.833 70.704 247.517 70.704C248.189 70.704 248.525 70.23 248.525 69.282C248.525 68.346 248.189 67.878 247.517 67.878ZM264.228 64.512V66.636H256.596V64.512H264.228ZM279.048 69.606H274.044L273.216 72H270.57L275.088 59.418H278.022L282.54 72H279.876L279.048 69.606ZM278.364 67.59L276.546 62.334L274.728 67.59H278.364ZM294.974 72H292.454L286.748 63.378V72H284.228V59.418H286.748L292.454 68.058V59.418H294.974V72ZM306.213 63.216C305.925 62.688 305.529 62.286 305.025 62.01C304.521 61.734 303.933 61.596 303.261 61.596C302.517 61.596 301.857 61.764 301.281 62.1C300.705 62.436 300.255 62.916 299.931 63.54C299.607 64.164 299.445 64.884 299.445 65.7C299.445 66.54 299.607 67.272 299.931 67.896C300.267 68.52 300.729 69 301.317 69.336C301.905 69.672 302.589 69.84 303.369 69.84C304.329 69.84 305.115 69.588 305.727 69.084C306.339 68.568 306.741 67.854 306.933 66.942H302.613V65.016H309.417V67.212C309.249 68.088 308.889 68.898 308.337 69.642C307.785 70.386 307.071 70.986 306.195 71.442C305.331 71.886 304.359 72.108 303.279 72.108C302.067 72.108 300.969 71.838 299.985 71.298C299.013 70.746 298.245 69.984 297.681 69.012C297.129 68.04 296.853 66.936 296.853 65.7C296.853 64.464 297.129 63.36 297.681 62.388C298.245 61.404 299.013 60.642 299.985 60.102C300.969 59.55 302.061 59.274 303.261 59.274C304.677 59.274 305.907 59.622 306.951 60.318C307.995 61.002 308.715 61.968 309.111 63.216H306.213ZM317.113 72.126C315.937 72.126 314.857 71.85 313.873 71.298C312.889 70.746 312.109 69.984 311.533 69.012C310.957 68.028 310.669 66.918 310.669 65.682C310.669 64.458 310.957 63.36 311.533 62.388C312.109 61.404 312.889 60.636 313.873 60.084C314.857 59.532 315.937 59.256 317.113 59.256C318.301 59.256 319.381 59.532 320.353 60.084C321.337 60.636 322.111 61.404 322.675 62.388C323.251 63.36 323.539 64.458 323.539 65.682C323.539 66.918 323.251 68.028 322.675 69.012C322.111 69.984 321.337 70.746 320.353 71.298C319.369 71.85 318.289 72.126 317.113 72.126ZM317.113 69.876C317.869 69.876 318.535 69.708 319.111 69.372C319.687 69.024 320.137 68.532 320.461 67.896C320.785 67.26 320.947 66.522 320.947 65.682C320.947 64.842 320.785 64.11 320.461 63.486C320.137 62.85 319.687 62.364 319.111 62.028C318.535 61.692 317.869 61.524 317.113 61.524C316.357 61.524 315.685 61.692 315.097 62.028C314.521 62.364 314.071 62.85 313.747 63.486C313.423 64.11 313.261 64.842 313.261 65.682C313.261 66.522 313.423 67.26 313.747 67.896C314.071 68.532 314.521 69.024 315.097 69.372C315.685 69.708 316.357 69.876 317.113 69.876ZM327.934 70.002H332.074V72H325.414V59.436H327.934V70.002ZM341.38 69.606H336.376L335.548 72H332.902L337.42 59.418H340.354L344.872 72H342.208L341.38 69.606ZM340.696 67.59L338.878 62.334L337.06 67.59H340.696ZM359.399 59.436V61.47H356.051V72H353.531V61.47H350.183V59.436H359.399ZM363.758 61.47V64.62H367.988V66.618H363.758V69.948H368.528V72H361.238V59.418H368.528V61.47H363.758ZM373.338 70.002H377.478V72H370.818V59.436H373.338V70.002ZM381.6 61.47V64.62H385.83V66.618H381.6V69.948H386.37V72H379.08V59.418H386.37V61.47H381.6ZM388.048 65.7C388.048 64.464 388.324 63.36 388.876 62.388C389.44 61.404 390.202 60.642 391.162 60.102C392.134 59.55 393.22 59.274 394.42 59.274C395.824 59.274 397.054 59.634 398.11 60.354C399.166 61.074 399.904 62.07 400.324 63.342H397.426C397.138 62.742 396.73 62.292 396.202 61.992C395.686 61.692 395.086 61.542 394.402 61.542C393.67 61.542 393.016 61.716 392.44 62.064C391.876 62.4 391.432 62.88 391.108 63.504C390.796 64.128 390.64 64.86 390.64 65.7C390.64 66.528 390.796 67.26 391.108 67.896C391.432 68.52 391.876 69.006 392.44 69.354C393.016 69.69 393.67 69.858 394.402 69.858C395.086 69.858 395.686 69.708 396.202 69.408C396.73 69.096 397.138 68.64 397.426 68.04H400.324C399.904 69.324 399.166 70.326 398.11 71.046C397.066 71.754 395.836 72.108 394.42 72.108C393.22 72.108 392.134 71.838 391.162 71.298C390.202 70.746 389.44 69.984 388.876 69.012C388.324 68.04 388.048 66.936 388.048 65.7ZM408.308 72.126C407.132 72.126 406.052 71.85 405.068 71.298C404.084 70.746 403.304 69.984 402.728 69.012C402.152 68.028 401.864 66.918 401.864 65.682C401.864 64.458 402.152 63.36 402.728 62.388C403.304 61.404 404.084 60.636 405.068 60.084C406.052 59.532 407.132 59.256 408.308 59.256C409.496 59.256 410.576 59.532 411.548 60.084C412.532 60.636 413.306 61.404 413.87 62.388C414.446 63.36 414.734 64.458 414.734 65.682C414.734 66.918 414.446 68.028 413.87 69.012C413.306 69.984 412.532 70.746 411.548 71.298C410.564 71.85 409.484 72.126 408.308 72.126ZM408.308 69.876C409.064 69.876 409.73 69.708 410.306 69.372C410.882 69.024 411.332 68.532 411.656 67.896C411.98 67.26 412.142 66.522 412.142 65.682C412.142 64.842 411.98 64.11 411.656 63.486C411.332 62.85 410.882 62.364 410.306 62.028C409.73 61.692 409.064 61.524 408.308 61.524C407.552 61.524 406.88 61.692 406.292 62.028C405.716 62.364 405.266 62.85 404.942 63.486C404.618 64.11 404.456 64.842 404.456 65.682C404.456 66.522 404.618 67.26 404.942 67.896C405.266 68.532 405.716 69.024 406.292 69.372C406.88 69.708 407.552 69.876 408.308 69.876ZM430.307 59.436V72H427.787V63.828L424.421 72H422.513L419.129 63.828V72H416.609V59.436H419.471L423.467 68.778L427.463 59.436H430.307Z" fill="black"/>
<circle cx="8" cy="117.5" r="8" fill="#5C2D88"/>
<path d="M24.99 114.334C25.05 113.134 25.47 112.21 26.25 111.562C27.042 110.902 28.08 110.572 29.364 110.572C30.24 110.572 30.99 110.728 31.614 111.04C32.238 111.34 32.706 111.754 33.018 112.282C33.342 112.798 33.504 113.386 33.504 114.046C33.504 114.802 33.306 115.444 32.91 115.972C32.526 116.488 32.064 116.836 31.524 117.016V117.088C32.22 117.304 32.76 117.688 33.144 118.24C33.54 118.792 33.738 119.5 33.738 120.364C33.738 121.084 33.57 121.726 33.234 122.29C32.91 122.854 32.424 123.298 31.776 123.622C31.14 123.934 30.372 124.09 29.472 124.09C28.116 124.09 27.012 123.748 26.16 123.064C25.308 122.38 24.858 121.372 24.81 120.04H27.258C27.282 120.628 27.48 121.102 27.852 121.462C28.236 121.81 28.758 121.984 29.418 121.984C30.03 121.984 30.498 121.816 30.822 121.48C31.158 121.132 31.326 120.688 31.326 120.148C31.326 119.428 31.098 118.912 30.642 118.6C30.186 118.288 29.478 118.132 28.518 118.132H27.996V116.062H28.518C30.222 116.062 31.074 115.492 31.074 114.352C31.074 113.836 30.918 113.434 30.606 113.146C30.306 112.858 29.868 112.714 29.292 112.714C28.728 112.714 28.29 112.87 27.978 113.182C27.678 113.482 27.504 113.866 27.456 114.334H24.99ZM35.4234 113.2V110.878H39.7614V124H37.1694V113.2H35.4234ZM41.9629 114.1C41.9629 113.188 42.2269 112.474 42.7549 111.958C43.2949 111.442 43.9849 111.184 44.8249 111.184C45.6649 111.184 46.3489 111.442 46.8769 111.958C47.4169 112.474 47.6869 113.188 47.6869 114.1C47.6869 115.024 47.4169 115.744 46.8769 116.26C46.3489 116.776 45.6649 117.034 44.8249 117.034C43.9849 117.034 43.2949 116.776 42.7549 116.26C42.2269 115.744 41.9629 115.024 41.9629 114.1ZM53.5189 111.4L46.4449 124H43.9969L51.0529 111.4H53.5189ZM44.8069 112.696C44.1469 112.696 43.8169 113.164 43.8169 114.1C43.8169 115.048 44.1469 115.522 44.8069 115.522C45.1309 115.522 45.3829 115.408 45.5629 115.18C45.7429 114.94 45.8329 114.58 45.8329 114.1C45.8329 113.164 45.4909 112.696 44.8069 112.696ZM49.8649 121.282C49.8649 120.358 50.1289 119.644 50.6569 119.14C51.1969 118.624 51.8869 118.366 52.7269 118.366C53.5669 118.366 54.2449 118.624 54.7609 119.14C55.2889 119.644 55.5529 120.358 55.5529 121.282C55.5529 122.206 55.2889 122.926 54.7609 123.442C54.2449 123.958 53.5669 124.216 52.7269 124.216C51.8749 124.216 51.1849 123.958 50.6569 123.442C50.1289 122.926 49.8649 122.206 49.8649 121.282ZM52.7089 119.878C52.0249 119.878 51.6829 120.346 51.6829 121.282C51.6829 122.23 52.0249 122.704 52.7089 122.704C53.3809 122.704 53.7169 122.23 53.7169 121.282C53.7169 120.346 53.3809 119.878 52.7089 119.878ZM69.4198 116.512V118.636H61.7878V116.512H69.4198ZM79.019 111.436V119.212C79.019 120.064 79.241 120.718 79.685 121.174C80.129 121.618 80.753 121.84 81.557 121.84C82.373 121.84 83.003 121.618 83.447 121.174C83.891 120.718 84.113 120.064 84.113 119.212V111.436H86.651V119.194C86.651 120.262 86.417 121.168 85.949 121.912C85.493 122.644 84.875 123.196 84.095 123.568C83.327 123.94 82.469 124.126 81.521 124.126C80.585 124.126 79.733 123.94 78.965 123.568C78.209 123.196 77.609 122.644 77.165 121.912C76.721 121.168 76.499 120.262 76.499 119.194V111.436H79.019ZM99.8318 124H97.3118L91.6058 115.378V124H89.0858V111.418H91.6058L97.3118 120.058V111.418H99.8318V124ZM104.842 111.436V124H102.322V111.436H104.842ZM115.882 111.436V113.47H112.534V124H110.014V113.47H106.666V111.436H115.882ZM120.241 113.47V116.62H124.471V118.618H120.241V121.948H125.011V124H117.721V111.418H125.011V113.47H120.241ZM129.821 122.002H133.961V124H127.301V111.436H129.821V122.002Z" fill="black"/>
</svg>
